<svg width="24" height="24" viewBox="0 0 24 24" fill="none" xmlns="http://www.w3.org/2000/svg">
<path d="M12.09 22.4657C17.7745 22.4657 22.4675 17.7663 22.4675 12.09C22.4675 6.40554 17.7663 1.71429 12.0818 1.71429C6.40735 1.71429 1.71429 6.40554 1.71429 12.09C1.71429 17.7663 6.41559 22.4657 12.09 22.4657Z" fill="#F4F4F5"/>
<path d="M14.1204 17.1055C13.8268 17.3891 13.2285 17.3727 12.9093 17.0772L8.76866 13.1748C8.1473 12.6037 8.1473 11.5946 8.76866 11.0235L12.9093 7.12293C13.2623 6.79367 13.7858 6.79085 14.1068 7.09461C14.4634 7.42568 14.4716 7.99842 14.1269 8.31944L10.1052 12.09L14.1269 15.8788C14.4598 16.1998 14.477 16.7471 14.1204 17.1055Z" fill="black"/>
</svg>
