<svg width="18" height="18" viewBox="0 0 18 18" fill="none" xmlns="http://www.w3.org/2000/svg">
<path d="M4.70026 15.8467H6.31604C6.45857 15.8467 6.56209 15.8879 6.6683 15.9941L7.81489 17.1332C8.79261 18.1184 9.71331 18.1122 10.691 17.1332L11.8376 15.9941C11.95 15.8879 12.0473 15.8467 12.1961 15.8467H13.8057C15.1935 15.8467 15.8459 15.1978 15.8459 13.8052V12.1956C15.8459 12.0482 15.8884 11.9495 15.9946 11.8371L17.1337 10.6919C18.1175 9.71421 18.1113 8.79345 17.1337 7.81437L15.9946 6.66915C15.8871 6.56293 15.8459 6.45942 15.8459 6.31688V4.7011C15.8459 3.31947 15.1969 2.66088 13.8057 2.66088H12.1961C12.0473 2.66088 11.9487 2.62458 11.8376 2.51836L10.691 1.37929C9.71196 0.394063 8.79261 0.40024 7.81489 1.38065L6.6683 2.51836C6.56344 2.62458 6.45857 2.66088 6.31604 2.66088H4.70026C3.31244 2.66088 2.66004 3.30575 2.66004 4.7011V6.31688C2.66004 6.45942 2.62373 6.56429 2.51751 6.66915L1.37845 7.81437C0.394574 8.79345 0.400751 9.71421 1.37845 10.6919L2.51751 11.8371C2.62373 11.9495 2.66004 12.0482 2.66004 12.1956V13.8052C2.66004 15.193 3.3138 15.8467 4.70026 15.8467Z" fill="#34C759"/>
<path d="M8.41635 12.9698C8.13176 12.9698 7.90046 12.853 7.68973 12.5797L5.84354 10.334C5.70884 10.1616 5.63968 9.98163 5.63968 9.79687C5.63968 9.40698 5.94404 9.09571 6.33261 9.09571C6.56524 9.09571 6.7459 9.18185 6.93966 9.43044L8.39166 11.2741L11.5054 6.28644C11.6702 6.02307 11.8837 5.8938 12.1211 5.8938C12.4897 5.8938 12.8366 6.15777 12.8366 6.54634C12.8366 6.7264 12.7454 6.91051 12.6401 7.07746L9.1143 12.5743C8.94253 12.8317 8.69831 12.9698 8.41635 12.9698Z" fill="white"/>
</svg>
