<svg width="18" height="18" viewBox="0 0 18 18" fill="none" xmlns="http://www.w3.org/2000/svg">
<path d="M12.8062 9.23932C12.8035 8.98315 12.7078 8.76243 12.505 8.56716L6.63748 2.81881C6.46662 2.65413 6.26292 2.57141 6.01688 2.57141C5.53233 2.57141 5.14285 2.952 5.14285 3.44137C5.14285 3.67988 5.23988 3.90061 5.40788 4.07206L10.7051 9.2379L5.40788 14.4065C5.24124 14.5766 5.14285 14.7925 5.14285 15.0386C5.14285 15.5266 5.53233 15.9085 6.01688 15.9085C6.26021 15.9085 6.46662 15.8258 6.63748 15.655L12.505 9.91143C12.7092 9.70995 12.8062 9.49408 12.8062 9.23932Z" fill="#939393"/>
</svg>
