<svg width="18" height="18" viewBox="0 0 18 18" fill="none" xmlns="http://www.w3.org/2000/svg">
<path d="M8.59937 17.2897H9.97875C10.4247 17.2897 10.7585 17.0209 10.8536 16.5865L11.2331 14.9847C11.493 14.8976 11.7453 14.7968 11.9655 14.6912L13.3692 15.5503C13.7379 15.7808 14.1681 15.7426 14.4773 15.4361L15.445 14.4746C15.7542 14.1654 15.796 13.7113 15.5503 13.344L14.6939 11.9552C14.8058 11.7241 14.9052 11.4854 14.9786 11.2454L16.5954 10.8597C17.0298 10.766 17.2924 10.4309 17.2924 9.98491V8.63086C17.2924 8.19237 17.0298 7.85866 16.5954 7.76223L14.995 7.37788C14.9079 7.10698 14.8023 6.86078 14.7077 6.65436L15.5668 5.24032C15.8062 4.86893 15.7755 4.43741 15.4574 4.13095L14.4732 3.16049C14.1593 2.87451 13.7722 2.82253 13.3973 3.03121L11.9655 3.91565C11.7515 3.80249 11.5053 3.70305 11.2344 3.6146L10.8536 1.99023C10.7585 1.55585 10.4247 1.28571 9.97875 1.28571H8.59937C8.15336 1.28571 7.81965 1.55585 7.71975 1.99159L7.33886 3.59953C7.07896 3.68662 6.82523 3.78742 6.59892 3.90676L5.18082 3.03121C4.8046 2.82253 4.41406 2.86699 4.09736 3.1632L3.12072 4.13095C2.80266 4.43741 2.7671 4.86893 3.01269 5.24032L3.86427 6.65436C3.77584 6.86078 3.67021 7.10698 3.58448 7.37788L1.98406 7.76223C1.54833 7.85866 1.28572 8.19237 1.28572 8.63086V9.98491C1.28572 10.4309 1.54833 10.766 1.98406 10.8597L3.59954 11.2454C3.67428 11.4854 3.77236 11.7241 3.87799 11.9552L3.02776 13.344C2.77599 13.7113 2.82526 14.1654 3.13443 14.4746L4.096 15.4361C4.40382 15.7426 4.84151 15.7808 5.2102 15.5503L6.60646 14.6912C6.83412 14.7968 7.07896 14.8976 7.33886 14.9847L7.71975 16.5865C7.81965 17.0209 8.15336 17.2897 8.59937 17.2897ZM9.28974 11.926C7.84042 11.926 6.65346 10.7315 6.65346 9.28221C6.65346 7.84041 7.84042 6.65345 9.28974 6.65345C10.7376 6.65345 11.9246 7.84041 11.9246 9.28221C11.9246 10.7315 10.7376 11.926 9.28974 11.926Z" fill="#949494"/>
</svg>
