<svg width="18" height="18" viewBox="0 0 18 18" fill="none" xmlns="http://www.w3.org/2000/svg">
<path d="M11.3341 4.06021C12.2701 4.06021 13.0239 3.30777 13.0239 2.37181C13.0239 1.44203 12.2701 0.688232 11.3341 0.688232C10.3981 0.688232 9.64574 1.44203 9.64574 2.37181C9.64574 3.30777 10.3981 4.06021 11.3341 4.06021ZM8.47366 17.4507C11.8261 17.4507 14.0698 15.2164 14.0698 11.9074C14.0698 10.1524 13.2311 9.13612 11.6766 9.13612H10.6576C10.487 9.13612 10.3795 9.02445 10.4459 8.82169L11.1471 6.69814C11.4717 5.7108 11.0034 4.82742 9.92146 4.55351L6.77893 3.76324C6.47623 3.68791 6.24616 3.73794 5.96547 3.90021L2.91335 5.6204C2.54707 5.82923 2.46285 6.35582 2.71959 6.69949C2.96473 7.04664 3.3982 7.11099 3.79461 6.90696L6.59406 5.42573L8.22596 5.86057C8.54101 5.94961 8.65883 6.16266 8.55336 6.45511L7.6953 8.86624C7.29678 10.0078 7.96379 10.9808 9.07437 10.9808H11.8063C12.3905 10.9808 12.7946 11.3286 12.7946 11.9074C12.7946 14.4495 11.0639 16.1754 8.47984 16.1754C5.86452 16.1754 4.12293 14.421 4.12293 11.8409C4.12293 10.9852 4.36219 10.2301 4.77066 9.5937C5.26711 8.79649 4.1719 8.1348 3.64064 9.01031C3.14584 9.80829 2.84766 10.768 2.84766 11.8409C2.84766 15.1893 5.08255 17.4507 8.47366 17.4507ZM14.1047 17.4507C14.5831 17.4507 14.9645 17.0694 14.9645 16.5922C14.9645 16.115 14.5831 15.7336 14.1047 15.7336C13.6275 15.7336 13.2461 16.115 13.2461 16.5922C13.2461 17.0694 13.6275 17.4507 14.1047 17.4507Z" fill="#949494"/>
</svg>
