<svg width="18" height="18" viewBox="0 0 18 18" fill="none" xmlns="http://www.w3.org/2000/svg">
<path d="M8.82874 16.5907C8.96147 16.5907 9.15795 16.5387 9.34901 16.4408C13.6654 14.2176 15.0861 13.0503 15.0861 10.3471V4.74147C15.0861 3.86518 14.7491 3.55013 14.0106 3.24035C13.1834 2.90044 10.412 1.91521 9.60454 1.64235C9.35775 1.5637 9.08036 1.51654 8.82874 1.51654C8.57847 1.51654 8.30109 1.56988 8.05912 1.64235C7.2455 1.90286 4.47544 2.90662 3.64826 3.24035C2.91586 3.54259 2.57143 3.86518 2.57143 4.74147V10.3471C2.57143 13.0503 4.05658 14.1098 8.30847 16.4408C8.5057 16.545 8.69735 16.5907 8.82874 16.5907Z" fill="#949494"/>
</svg>
